# xmcd
#
# Track frame offsets:
#	150
#	19427
#	31591
#	43691
#	60327
#	76831
#	90065
#	110457
#	125778
#	137773
#	149014
#	162049
#	183115
#	196320
#	207691
#	221234
#	238823
#	251271
#
# Disc length: 3502 seconds
#
# Revision: 1
# Processed by: cddbd v1.5.2PL0 Copyright (c) Steve Scherf et al.
# Submitted via: audiograbber 1.83.01
#
DISCID=fa0dac12
DTITLE=TAXMENI - Nejvetsi country pecky
DYEAR=2010
DGENRE=Country
TTITLE0=Nebesti jezdci
TTITLE1=Maybellene
TTITLE2=Tipperary
TTITLE3=Rekni kde ty kytky jsou
TTITLE4=Guadalcanal
TTITLE5=Memphis Tennessee
TTITLE6=Jo, to jsem jeste zil
TTITLE7=Srdce v ruce mam
TTITLE8=Ohio
TTITLE9=Vlak do Zlatodolu
TTITLE10=Biggles
TTITLE11=Buraky
TTITLE12=Neberte nam nasi viru
TTITLE13=Ven se divej
TTITLE14=Mala misa military-Lilly Marlene,Kazda holka mava,Katusa,Skoda lasky,M
TTITLE14=ost pres reku Kwai,Hospoda,Nad nami...
TTITLE15=Nashville
TTITLE16=Pochod americkych namorniku
TTITLE17=Valcik na rozloucenou
EXTD=
EXTT0=
EXTT1=
EXTT2=
EXTT3=
EXTT4=
EXTT5=
EXTT6=
EXTT7=
EXTT8=
EXTT9=
EXTT10=
EXTT11=
EXTT12=
EXTT13=
EXTT14=
EXTT15=
EXTT16=
EXTT17=
PLAYORDER=
